<?xml version="1.0" encoding="UTF-8"?>
<svg id="fill" xmlns="http://www.w3.org/2000/svg" viewBox="0 0 100 100">
    <defs>
        <style>
            .cls-1,.cls-2{stroke:#ffffff;stroke-width:3.00013px;}.cls-1,.cls-2,.cls-3{fill:none;stroke-linecap:round;stroke-linejoin:round;}.cls-4{fill:#ffffff;}.cls-4,.cls-2{fill-rule:evenodd;}.cls-3{stroke:#ffffff;stroke-width:2.75165px;}</style>
    </defs>
    <path class="cls-4"
        d="M38.25103,37.79171c-1.80762-1.15484-4.23648-.94259-5.8155.63669-1.82466,1.82403-1.82498,4.78257,0,6.60691l13.61838,13.619c1.82466,1.82435,4.78282,1.82435,6.60691,0l31.08838-31.08845c.90958-.90951,1.36557-2.10028,1.36867-3.29262v-.02224c-.0031-1.19171-.4591-2.38311-1.36867-3.29231-1.57959-1.57966-4.00756-1.79128-5.8155-.63638l-26.01044,26.01045c-2.08456,2.08393-2.68653,2.44463-4.7711.36045l-8.90113-8.90151h0Z" />
    <path class="cls-2"
        d="M78.70776,41.50694c.08477.64658.14788,1.27459.18748,1.88252.0427.65773.06494,1.2851.06494,1.88036,0,9.94091-3.91347,15.0641-7.94023,20.33478-3.85531,5.0467-7.82517,7.4864-7.82517,17.89692,0,1.06176-.86066,1.92179-1.92179,1.92179h-22.07124c-1.06145,0-1.92211-.86003-1.92211-1.92179,0-10.41053-3.9698-12.85022-7.82517-17.89692-4.02644-5.27068-7.93992-10.39386-7.93992-20.33478,0-7.93035,3.21558-15.1111,8.41359-20.30911,5.19826-5.19832,12.37902-8.41391,20.30911-8.41391,3.27184,0,6.43173.55623,9.38994,1.57998,3.0658,1.06138,5.88602,2.61659,8.36347,4.56746" />
    <line class="cls-3" x1="49.24755" y1="4.50578" x2="49.24755" y2="9.71672" />
    <line class="cls-3" x1="84.21633" y1="65.06326" x2="79.70349" y2="62.45786" />
    <line class="cls-3" x1="14.2877" y1="65.06848" x2="18.80055" y2="62.46295" />
    <line class="cls-3" x1="69.43433" y1="9.91442" x2="66.82893" y2="14.42727" />
    <line class="cls-3" x1="89.62167" y1="44.87839" x2="84.41074" y2="44.87839" />
    <line class="cls-3" x1="29.06103" y1="9.91525" x2="31.66643" y2="14.42809" />
    <line class="cls-3" x1="14.28358" y1="24.69312" x2="18.79642" y2="27.29866" />
    <line class="cls-3" x1="8.87494" y1="44.87991" x2="14.08601" y2="44.87991" />
    <path class="cls-1"
        d="M44.97561,93.04984c.93851,2.0581,3.01105,3.44437,5.3568,3.44437s4.4183-1.38628,5.3568-3.44437" />
    <polyline class="cls-1"
        points="41.99313 86.67698 41.99313 91.66748 58.67169 91.66748 58.67169 86.67698" />
</svg>