<?xml version="1.0" encoding="UTF-8"?>
<svg id="Layer_4" xmlns="http://www.w3.org/2000/svg" viewBox="0 0 573.01934 167.24409">
    <defs>
        <style>.cls-1{fill:#010101;} .cls-2{stroke:black;stroke-width:0.5;}</style>
    </defs>
    <path class="cls-1"
        d="M199.37294,107.5195h-7.81441v5.90475h6.94745v2.6917h-6.94745v6.16542h7.81441v2.6917h-11.11435v-20.14526h11.11435s0,2.6917,0,2.69169Z" />
    <path class="cls-1"
        d="M228.77819,114.98832c0,6.19307-4.22416,9.98475-10.67989,9.98475h-6.57027v-20.11564h6.57027c6.45573,0,10.67989,3.90623,10.67989,10.13089ZM218.0983,122.28137c4.7475,0,7.29502-2.72131,7.29502-7.29305,0-4.60333-2.54755-7.43919-7.29503-7.43919h-3.27032v14.73224h3.27033Z" />
    <path class="cls-1"
        d="M240.12361,104.85742h3.29798v12.82258c0,3.12617,1.76549,4.60136,4.54408,4.60136,2.80821,0,4.57371-1.4752,4.57371-4.60136v-12.82258h3.29995v12.76334c0,5.12272-3.70477,7.5557-7.90132,7.5557-4.22612,0-7.81443-2.43299-7.81443-7.5557v-12.76334h.00003Z" />
    <path class="cls-1"
        d="M277.40052,104.59675c4.19652,0,7.81443,2.11307,9.34885,6.04891h-3.96546c-1.07036-2.14072-2.98003-3.15381-5.3834-3.15381-3.99312,0-6.8882,2.83586-6.8882,7.37995s2.8951,7.40957,6.8882,7.40957c2.40337,0,4.31301-1.01309,5.3834-3.15578h3.96546c-1.53443,3.93782-5.15233,6.02126-9.34885,6.02126-5.6717,0-10.27503-4.22614-10.27503-10.27505,0-6.02126,4.60333-10.27505,10.27503-10.27505Z" />
    <path class="cls-1"
        d="M310.82851,120.86344h-8.42265l-1.44754,4.10962h-3.4441l7.20814-20.14526h3.81934l7.20814,20.14526h-3.47372l-1.44754-4.10962h-.00008ZM306.63199,108.82288l-3.29995,9.34886h6.57027s-3.27032-9.34885-3.27032-9.34886Z" />
    <path class="cls-1"
        d="M325.93795,104.85742h14.03711v2.6917h-5.35573v17.42395h-3.29798v-17.42394h-5.3834v-2.6917Z" />
    <path class="cls-1" d="M351.40537,104.85742h3.29995v20.11563h-3.29995s0-20.11564,0-20.11563Z" />
    <path class="cls-1"
        d="M376.32577,125.17648c-5.6717,0-10.27506-4.25575-10.27506-10.30467,0-6.02126,4.60333-10.27505,10.27503-10.27505,5.73095,0,10.27503,4.25378,10.27503,10.27505,0,6.04891-4.54408,10.30467-10.27503,10.30467h.00003ZM376.32577,122.31098c3.99508,0,6.88822-2.8951,6.88822-7.4392s-2.89311-7.37995-6.8882-7.37995c-3.99312,0-6.8882,2.83586-6.8882,7.37995s2.8951,7.4392,6.8882,7.4392h-.00003Z" />
    <path class="cls-1"
        d="M414.47162,104.8278v20.14527h-3.29995l-9.92748-15.02254v15.02254h-3.29995v-20.14526h3.29995l9.92748,14.99292v-14.99292s3.29995,0,3.29995,0Z" />
    <path class="cls-1"
        d="M461.06776,110.64566h-3.96548c-1.07036-2.02618-2.98003-3.03927-5.3834-3.03927-3.99312,0-6.8882,2.83783-6.8882,7.26541s2.89508,7.29305,6.8882,7.29305c3.6475,0,5.93436-2.19995,6.42612-5.58482h-7.55373v-2.63442h11.08472v2.57518c-.60827,4.66061-4.54408,8.62607-9.9571,8.62607-5.6717,0-10.27503-4.22614-10.27503-10.27505,0-6.02126,4.60333-10.27505,10.27503-10.27505,4.19652,0,7.8144,2.11307,9.34888,6.04889Z" />
    <path class="cls-1"
        d="M479.96887,104.85742c4.77512,0,7.11924,2.74897,7.11924,6.01929,0,2.37376-1.27376,4.92128-4.6606,5.76059l4.97853,8.33576h-3.93586l-4.63097-8.04547h-2.51789v8.04547h-3.29995v-20.11564h6.9475ZM479.96887,107.54912h-3.6475v6.74404h3.6475c2.57521,0,3.7324-1.41792,3.7324-3.41646,0-2.02618-1.15725-3.3276-3.7324-3.32758Z" />
    <path class="cls-1"
        d="M508.59013,125.17648c-5.6717,0-10.27503-4.25575-10.27503-10.30467,0-6.02126,4.60333-10.27505,10.27503-10.27505,5.73095,0,10.27503,4.25378,10.27503,10.27505,0,6.04891-4.54408,10.30467-10.27503,10.30467ZM508.59013,122.31098c3.99511,0,6.8882-2.8951,6.8882-7.4392s-2.89314-7.37995-6.8882-7.37995c-3.99312,0-6.8882,2.83586-6.8882,7.37995s2.89508,7.4392,6.8882,7.4392Z" />
    <path class="cls-1"
        d="M530.18292,104.85742h3.29796v12.82258c0,3.12617,1.76552,4.60136,4.54408,4.60136,2.80819,0,4.57371-1.4752,4.57371-4.60136v-12.82258h3.29995v12.76334c0,5.12272-3.70477,7.5557-7.90129,7.5557-4.22615,0-7.8144-2.43299-7.8144-7.5557v-12.76334Z" />
    <path class="cls-1"
        d="M565.23223,116.81108h-3.6475v8.16198h-3.29995v-20.11564h6.94745c4.77512,0,7.11924,2.72132,7.11924,5.99164,0,2.86548-1.88203,5.96202-7.11924,5.96202ZM565.23223,114.11938c2.57521,0,3.7324-1.24415,3.7324-3.27032,0-2.08542-1.15725-3.29995-3.7324-3.29995h-3.6475v6.57027h3.6475Z" />
    <path class="cls-1"
        d="M217.35379,84.66279c-2.75489-3.77983-8.07114-11.27432-12.61917-17.87222-1.34683-1.98667-2.17824-2.36979-3.13999-2.24143v11.52907c0,5.44658.57666,5.89487,5.50978,6.34317v2.24143h-19.1539v-2.24143c4.61321-.4483,5.25306-.89657,5.25306-6.34317v-24.47014c0-5.44461-.57666-5.8929-5.38142-6.34119v-2.24242h18.83397v2.24242c-4.54803.44829-5.06149.89657-5.06149,6.34119v10.8912c1.34487-.38509,2.94645-1.41004,4.86994-3.39572,4.29132-4.29229,6.85267-7.49548,8.96771-10.31355,1.53642-2.04988,1.40805-2.94645-1.60158-3.33154l-1.15329-.19157v-2.24242h16.65573v2.24242c-3.97137.38411-6.59793,1.2165-10.121,4.48386-3.77984,3.45892-6.47152,6.53374-9.35281,9.54535,4.09974,6.08445,8.83935,12.554,13.45254,18.38372,2.62454,3.26835,4.3545,4.35647,6.91782,4.74158v2.24143h-12.8759v-.00004Z" />
    <path class="cls-1"
        d="M239.31787,84.66279v-2.24143c4.73961-.4483,5.31624-.89657,5.31624-6.27799v-24.53531c0-5.44461-.57666-5.8929-5.31624-6.34119v-2.24242h19.21708v2.24242c-4.74157.44829-5.31624.89657-5.31624,6.34119v24.53531c0,5.38142.57467,5.8297,5.31624,6.27799v2.24143h-19.21708Z" />
    <path class="cls-1"
        d="M313.87763,45.26689c-3.45991.19157-4.80477,1.02493-5.12469,3.97138-.19354,1.9857-.57666,4.99633-.57666,10.63448v25.42991h-3.07482l-26.64838-31.90044h-.19157v14.41331c0,5.63617.31992,8.45623.51147,10.37774.31992,2.81809,1.41003,4.03458,6.14961,4.22811v2.24143h-15.694v-2.24143c3.58629-.25673,5.05953-1.28166,5.31624-4.03656.25671-2.11307.63984-4.93312.63984-10.5693v-13.38836c0-4.16393-.12638-5.38043-1.34487-6.85465-1.15329-1.53741-2.62653-2.04988-5.31624-2.30561v-2.24242h11.85097l24.47014,28.12258h.25671v-11.27432c0-5.63814-.38509-8.64878-.51346-10.50611-.31992-2.75488-1.66479-3.84401-6.34119-4.09974v-2.24242h15.63079v2.24242l.0001.00002Z" />
    <path class="cls-1"
        d="M365.69329,66.98212c-3.20316.64181-3.58828.89657-3.58828,5.18985v5.05952c0,2.30661.06318,4.35647.38509,6.02126-3.84499.96175-9.41797,2.37177-14.60587,2.37177-14.86258,0-24.40694-8.45623-24.40694-21.26893,0-14.60486,11.85097-22.29189,25.36868-22.29189,5.18787,0,10.18422,1.28166,12.4908,1.79413.19157,2.24143.51147,5.57297,1.02492,10.63348l-2.36979.4483c-1.60158-7.11038-6.40636-10.18519-12.4276-10.18519-7.68802,0-14.34913,6.91783-14.34913,18.4479,0,9.6747,4.73961,19.73055,15.24571,19.73055,1.28166,0,2.75488-.19157,3.58629-.76821.96175-.57665,1.47321-1.60159,1.47321-3.5231v-6.08644c0-4.48286-.31992-4.99633-7.04619-5.57297v-2.17824h19.21907v2.17824l.00003-.00003Z" />
    <path class="cls-1"
        d="M399.76112,53.46638c-1.34487-4.03556-3.71466-8.77615-8.96772-8.77615-3.58629,0-6.21282,2.6907-6.21282,6.34217,0,3.52311,2.30661,5.57297,7.94277,8.39205,6.72627,3.26638,11.33751,6.85267,11.33751,13.19582,0,7.30292-6.21282,13.00427-15.56562,13.00427-2.30661,0-4.54803-.3219-6.46956-.89854-1.79316-.51148-3.01162-1.02493-3.9082-1.40805-.57666-1.60159-1.40805-6.98301-1.85633-10.8912l2.24142-.70305c1.28166,4.09974,5.05953,11.27432,11.20914,11.27432,3.9082,0,6.40636-2.6917,6.40636-6.72628,0-3.77983-2.81808-6.14963-7.62285-8.71296-6.59793-3.33154-11.14596-6.78947-11.14596-12.93909,0-7.04719,5.57298-12.55598,14.66905-12.55598,4.09974,0,7.75122,1.28166,8.90452,1.72995.25671,2.36979.70503,5.18887,1.2165,9.16026l-2.17824.51247.00005-.00002Z" />
    <path class="cls-1"
        d="M447.80087,84.66279v-2.24143c4.80475-.51345,5.1879-.96175,5.12472-6.85465l-.12834-24.66268h-.31992l-14.15755,33.31048h-1.79316l-13.06746-32.66964h-.25671l-.77017,16.71892c-.25475,5.31624-.25475,8.32787,0,10.31258.25671,2.88327,1.5384,3.4599,5.76652,3.84499v2.24143h-15.37405v-2.24143c3.58629-.3219,4.80477-1.47323,5.18787-3.71663.38509-2.04988.89658-5.37944,1.34683-12.10571l1.02296-12.62016c.51346-7.30292.06517-8.19951-5.44461-8.71196v-2.24242h13.261l12.36246,28.05742,12.55597-28.05743h12.87589v2.24242c-5.12472.51247-5.38141,1.02493-5.25306,6.34119l.57666,23.95866c.12834,5.8929.44832,6.34119,5.44458,6.85465v2.24143h-18.96036l-.00005-.00003Z" />
    <path class="cls-1"
        d="M500.63749,84.66279v-2.24143c3.77982-.57665,4.09974-1.34486,3.07482-4.16492-.63984-1.92152-1.59959-4.61122-2.56134-7.23776h-12.29923c-.705,1.9847-1.5384,4.29131-2.30659,6.85465-.89658,3.07481-.76818,3.97138,3.90817,4.54804v2.24143h-14.34913l.06318-2.24143c4.22809-.51345,4.99632-1.21847,7.11139-6.59792l13.13263-32.92637,3.26639-.83338c4.09974,11.21014,8.07114,22.35707,12.23406,33.37466,2.17824,5.63815,3.01164,6.46955,7.04816,6.98301v2.24143h-18.32252ZM495.19286,53.78631h-.19157c-1.79316,4.6764-3.39474,9.28961-5.06149,13.83765h9.99463l-4.74157-13.83765Z" />
    <path class="cls-1"
        d="M572.95383,45.26689c-3.45991.19157-4.80475,1.02493-5.12472,3.97138-.19356,1.9857-.57666,4.99633-.57666,10.63448v25.42991h-3.07482l-26.64836-31.90044h-.19356v14.41331c0,5.63617.32191,8.45623.51343,10.37774.31992,2.81809,1.41006,4.03458,6.14964,4.22811v2.24143h-15.69397v-2.24143c3.58631-.25673,5.0595-1.28166,5.31624-4.03656.25674-2.11307.64183-4.93312.64183-10.5693v-13.38836c0-4.16393-.12834-5.38043-1.34683-6.85465-1.15332-1.53741-2.62651-2.04988-5.31624-2.30561v-2.24242h11.85097l24.47012,28.12258h.25674v-11.27432c0-5.63814-.38509-8.64878-.51343-10.50611-.31992-2.75488-1.66481-3.84401-6.34122-4.09974v-2.24242h15.63079v2.24242l.00005.00002Z" />
    <path class="cls-2"
        d="M52.11542,53.44797c-.46607-2.33712-1.86414-4.26384-4.19434-5.78023l-9.50154,5.14031c-4.24303,2.30235-6.36453,6.29495-6.36453,11.99171-1.69721.21563-2.99793.66777-3.90217,1.35638s-1.53027,1.82937-1.87806,3.42222c1.26595-.42429,2.21192-.63992,2.81011-.63992.66777,0,1.27291.1252,1.80156.3756.63295.20871,1.21029.52864,1.72501.95298.51476.42429.95293.91812,1.32857,1.4885.36863.56341.65384,1.18945.84858,1.87806.19478.69558.29217,1.37031.29217,2.04499,0,.81381-.19478,1.66243-.5843,2.54583-.57038.99467-2.7058,1.89194-6.42015,2.71272-2.86577.59818-4.29865,2.61537-4.29865,6.04455h.31994c.84862-1.55808,2.1215-2.33712,3.8187-2.33712.17389,0,.36171.00696.55649.02781.19474.01393.41733.0487.66076.08347,1.34245.17389,2.38582.31302,3.13705.42433.73731.10431,1.14075.15997,1.21726.15997,1.27291,0,2.49713-.37564,3.66569-1.11987,2.33016-1.41204,3.49872-3.87436,3.49872-7.37312v-9.92583h5.83589l.0487,8.70161c0,.43125-.13912.8347-.42429,1.22422-.06958.06958-.17389.18086-.31302.34083-.13912.16001-.34083.32694-.5843.5078v.42429c.77908.60515,1.60678,1.30768,2.49017,2.1215s1.84329,1.76675,2.86577,2.86577l7.95738-7.05314-.73731-.84858-1.22422.89728v-9.18156l2.76146-3.86744h-2.7058v-11.14309l1.06425-.52864,3.8187,2.81011.0487,22.3836c0,3.3666,1.29376,5.54376,3.87432,6.53146l4.66732-4.61863-.68861-.68861c-.42429.50084-.81381.74427-1.16856.74427-.84862,0-1.27291-.95293-1.27291-2.86577v-20.6377c0-.81381.21563-1.62766.63992-2.44148.13912-.2504.32694-.54257.55649-.87643.22951-.33386.52168-.75123.87639-1.24506l-.58426-.42429-2.0728,1.53719-5.51595-3.77001-8.75031,5.62718ZM55.50983,52.75936v10.2945h-3.39441l-.05566-7.9643,3.45007-2.3302ZM34.76777,71.21299c-.42429-.64688-.93209-1.21726-1.53027-1.71113-.5843-.47995-1.25203-.85554-1.98237-1.10594-.63996-.29217-1.37031-.44518-2.17023-.44518-.35471,0-.77208.05566-1.27287.15997.26432-.50079.5773-.89031.94597-1.16856.75123-.57734,1.90587-.96686,3.42222-1.1616l.86251-.10435v-.87643c0-4.76467,1.51639-8.17301,4.63255-10.36404-.22955.3269-.42429.6608-.57734.9877-.48691,1.05729-.72338,2.40671-.72338,4.12476v14.21756c0,.96686-.11132,1.8224-.34083,2.55971.02085-.21563.03477-.43125.03477-.64688,0-.75123-.11132-1.52331-.33386-2.31628-.22259-.786-.54953-1.50939-.96686-2.1493ZM36.61798,83.38555c-.9877.63295-2.03107.9599-3.10224.96686-.11828-.01393-.56341-.07655-1.07121-.14609l-.03477-.00696c-.77208-.11127-1.82937-.25736-3.13705-.42429-.27128-.03477-.50776-.06958-.7095-.08347-.22255-.02089-.43817-.03477-.64688-.03477-1.02944,0-1.95456.2504-2.74749.73731.52168-1.35638,1.54416-2.16327,3.11616-2.49713,1.7459-.38256,3.13705-.77904,4.22911-1.20333l1.30072.43125c1.06421.35475,1.87802.52864,2.48321.52864.75119,0,1.73198-.13912,2.57359-.73731-.50079,1.04336-1.25203,1.86414-2.25366,2.46928ZM39.64376,56.78677v19.74043c0,2.76141-1.11295,4.13864-3.34571,4.13864-.49387,0-1.21726-.15997-2.17715-.47299,2.16323-1.20333,3.24136-3.34571,3.24136-6.42711v-14.21756c0-1.55808.20866-2.79623.633-3.71435.42429-.91816,1.22418-1.85722,2.38582-2.81015l.16693.16001c-.60515,1.27287-.90424,2.47625-.90424,3.60307ZM40.59669,66.18395v-9.07725c0-2.08673.86947-3.9439,2.60144-5.57156,2.22585,0,3.33875.77908,3.33875,2.33716l-.0487,9.18156h-3.77001l-2.1215,3.13009ZM55.50983,77.00714l-1.70417,1.53719c-1.1616-.45906-1.7459-1.3633-1.7459-2.7058l.05566-8.91724h3.39441v10.08584ZM57.40873,64.04161l-1.34942,1.89194h-4.92468l-.00696.98775-.05562,8.91724c0,1.69029.75815,2.91446,2.198,3.55442l-2.63621,2.34408c-.77904-.80689-1.53027-1.55116-2.26062-2.22585-.63992-.5843-1.26595-1.13379-1.8711-1.62766.01393-.01388.02781-.02781.03477-.04173.1252-.13908.21563-.23647.27825-.29909l.05562-.05566.04173-.06258c.41041-.55645.61211-1.1616.61211-1.80156l-.0487-8.70161-.00692-.98775h-5.50899l1.28684-1.89194h4.22215l.00692-.98775.0487-9.18156c0-1.0851-.42429-2.80319-3.0327-3.22748l3.3666-1.8224c1.82937,1.31465,2.9075,2.89357,3.28309,4.81337l.15305.77904-.22955.15305.00696.52864.05562,7.9643.00696.98078h6.2741ZM66.40948,52.80109l.02085-.02085c-.29909.75123-.4521,1.50242-.4521,2.26062v20.6377c0,2.65014.84858,3.55438,1.72501,3.79089l-2.49017,2.46232c-1.79455-.92508-2.67098-2.68491-2.67098-5.35594l-.0487-22.3836-.00696-.50079-.39648-.29213-3.76304-2.77538,2.52494-1.6137,4.97334,3.39437.5843.39648Z" />
    <path class="cls-2"
        d="M10.44348,11.03877l4.54213.31302c.06258.00696.11824.00696.18086.00696,1.41896,0,3.6935-.97382,6.8027-2.92839l.1252.2504c-2.58056,1.9476-4.38908,3.75612-5.42548,5.4116-1.2868,2.03107-1.92676,4.47951-1.92676,7.33831-1.11987-.53561-2.33016-.80689-3.61004-.80689-2.15627,0-3.71435,1.22422-4.66728,3.67266,1.40503-.41733,2.46928-.61907,3.17182-.61907l1.11987.11828c1.6207.16693,2.81707,1.11987,3.60307,2.8588.62603,1.37026.93905,2.97008.93905,4.79252-1.20337-.6608-2.5319-.99471-3.98567-.99471-1.90587,0-3.06747,1.07818-3.47788,3.23444.99467-.45214,1.80156-.68165,2.42755-.68165,1.27988,0,2.13542.70254,2.54583,2.11453l.18782,1.67632c0,1.90591-.81385,3.75612-2.42759,5.53679-.95293.99467-1.79455,1.86414-2.51798,2.61537-.73035.74427-1.3146,1.34942-1.77371,1.80156l.75123.93901c1.27983-.41733,2.42059-.76512,3.41526-1.02944,1.00163-.26432,1.8711-.5078,2.61537-.71646,2.03107-.45906,3.70743-.68861,5.03596-.68861,2.87969,0,6.36453.81381,10.45452,2.43451l6.59404-7.53309c.54257.95293,1.00859,1.75983,1.39811,2.39278.39648.64688.73731,1.17552,1.02944,1.59289.45214.66076.89732,1.27983,1.33553,1.86414.43817.58426.88335,1.11987,1.33549,1.62066l6.22541-6.78186-.87643-.81381-1.73894,1.6207-5.04292-8.08954c-1.78067-2.90054-4.18738-5.18204-7.21311-6.84448,1.7459-1.44677,3.44311-2.83792,5.09854-4.16649,1.66243-1.32157,3.3666-2.58752,5.10554-3.79089l-6.40626-7.15745c-3.07443,3.07443-6.43407,5.87066-10.07888,8.3956,0-4.93165,1.20337-9.61982,3.61004-14.05759h-1.06421c-2.48321,4.19434-3.72832,8.62515-3.72832,13.31332v11.26136c0,3.8952-1.22418,6.8027-3.67261,8.70861-.08347.08347-.81381.50079-2.20496,1.24506s-3.4153,1.85021-6.0724,3.29702l-.67469-.50079c1.8224-1.53027,3.26225-2.77534,4.31949-3.72832,1.05729-.95293,1.75286-1.59981,2.08673-1.92671,2.07284-2.32324,3.10924-4.81341,3.10924-7.47047v-12.43689c0-3.44311,1.11987-7.19923,3.35268-11.26136v-.43822c-2.23281.79297-3.89525,1.18249-4.97338,1.18249-.2504,0-.63295-.04173-1.14767-.11828-.52168-.09043-1.19641-.21563-2.02415-.3756-1.61374-.3756-2.92834-.56341-3.91609-.56341-4.39604,0-6.99748,2.74057-7.77653,8.21474l.18086.06262c1.412-2.23977,3.31791-3.3666,5.72457-3.3666ZM37.95347,34.10403l5.036,8.08258.35471.55649-3.07443,3.35268c-.18778-.22259-.36863-.4591-.54949-.70254-.42429-.55645-.85554-1.16164-1.32161-1.83633-.29213-.42429-.62599-.93901-.99467-1.53724-.36171-.58426-.81381-1.3633-1.38419-2.36493l-.38256-.67473.00696-.00696-.29913-.50776-.02781-.0487-.0487-.0765c-.73731-1.27291-1.39811-2.30931-1.9963-3.17182-.64688-.93901-1.20333-1.63458-1.70417-2.13542-1.44677-1.44681-3.08836-2.30931-4.89683-2.57364l.04173-.04173,3.74916-3.16486.64688.35475c2.8588,1.56504,5.15419,3.74916,6.84444,6.49665ZM35.34507,13.0768l4.93861,5.50894c-1.41896,1.00163-2.831,2.06588-4.22215,3.17182-.01393.00696-.02089.02089-.03477.02785l-.18086-.20866-4.22911-4.85514-.13912-.15301c1.33553-1.12683,2.62929-2.29539,3.8674-3.4918ZM25.25231,21.49325l5.59937-4.10387,4.22911,4.84814c-1.70417,1.28684-3.23444,2.51106-4.60475,3.67266l-4.41689,3.73524-.80685-.06262v-8.08954ZM25.25231,31.44697l.18778-.06262c2.03111,0,3.83263.786,5.4116,2.36497.45906.45906.98074,1.11987,1.57897,1.98933.60515.86947,1.25899,1.91283,1.96845,3.11616l-2.74057,3.10228c-2.8588-1.27988-6.12105-1.92676-9.76586-1.92676l-.81381-.1252c2.37189-2.14935,3.75608-4.97338,4.17345-8.45818ZM11.58424,44.58635l.52168.37564.56341-.30605c2.5806-1.40508,4.66036-2.53887,6.06544-3.29702.46602-.25044.84162-.45214,1.14071-.61211l1.05033.15997.80689.1252.08347.01393h.0765c3.48484,0,6.62881.61903,9.34853,1.84325l.11824.0487-3.1092,3.54746c-3.90913-1.48854-7.32443-2.23977-10.15542-2.23977-1.40503,0-3.12313.22955-5.25855.70254l-.05562.01393c-.73735.20866-1.60682.4521-2.60149.71642-.60515.16693-1.27287.35475-1.98237.57038.06262-.06262.13216-.1252.19474-.19474l.38956-.39648c.5286-.54953,1.1129-1.15468,1.76675-1.83633l.36171.26432.67469.50079ZM20.00764,17.7024v12.43689c0,2.41363-.92508,4.62555-2.831,6.76793-.21563.21563-.75815.73035-2.03107,1.87806-.59122.52864-1.30768,1.1616-2.14238,1.87806.66777-1.25903,1.00859-2.54583,1.00859-3.86744v-.05562l-.00696-.05566-.18081-1.67632-.01393-.09043-.02785-.09043c-.54253-1.82937-1.78759-2.83796-3.51961-2.83796-.18778,0-.38952.01393-.59818.04173.48691-.47299,1.07813-.56341,1.64851-.56341,1.28684,0,2.42755.28517,3.4918.86947l1.50939.8347v-1.72501c0-1.96849-.34779-3.72135-1.02944-5.20989-.94597-2.08673-2.43451-3.24832-4.41689-3.45003l-1.12687-.11828-.04865-.00692h-.05566c-.31998,0-.69558.03477-1.11295.09735.87643-.97378,1.85722-1.11987,2.60841-1.11987,1.11991,0,2.19108.23651,3.1649.7095l1.46069.69558v-1.61374c0-2.65014.59122-4.93857,1.76675-6.80275.786-1.25203,2.07981-2.62229,3.86048-4.09691-.91816,2.51102-1.37727,4.91076-1.37727,7.17138ZM12.31458,7.14357c.9112,0,2.15631.18081,3.72135.54253.89728.17389,1.55112.29909,2.06584.38256.60515.09043,1.00859.13216,1.30072.13216.34779,0,.73035-.02781,1.1616-.09739-3.07443,1.83633-4.62555,2.23977-5.39763,2.23977h-.11132l-4.54208-.31302-.03481-.00696h-.03477c-1.52331,0-2.87965.39648-4.05517,1.16856,1.65543-4.04821,4.76467-4.04821,5.92627-4.04821Z" />
    <path class="cls-2"
        d="M145.19033,0H.57327C.2881,0,.06551.22955.06551.50776v69.14715c0,22.08451,6.96968,43.1187,20.16472,60.82801,13.18812,17.70936,31.34262,30.41753,52.502,36.74029.0487.01393.09739.02089.14609.02089s.09739-.00696.14609-.02089c21.15938-6.32275,39.31388-19.03093,52.50896-36.74029,13.18812-17.70932,20.16472-38.7435,20.16472-60.82801V.50776c0-.2782-.22955-.50776-.50776-.50776ZM1.08107,1.01556h71.29098v90.32263H3.41174c-.00017-.00072-.00034-.00149-.00051-.00221-1.54416-7.05314-2.33016-14.30799-2.33016-21.68107V1.01556ZM124.71955,129.87777c-13.03511,17.49373-30.95309,30.04886-51.84124,36.32992-20.88118-6.28106-38.80612-18.83619-51.83427-36.32992-8.44395-11.33744-14.31452-24.04515-17.40292-37.52476h138.48131c-3.09532,13.47961-8.96585,26.18732-17.40288,37.52476ZM144.68253,69.65491c0,7.37308-.78596,14.62792-2.33016,21.68107-.0003.0014-.00064.00272-.00093.00412-.00335-.00008-.00616-.00191-.00955-.00191h-68.955V1.01556h71.29565v68.63935Z" />
    <path class="cls-2"
        d="M48.12974,31.53735h5.96805c.44518,0,.80689.36171.80689.85559,0,.29213-.13216.54949-.36868.69558-.92513.59122-1.48158,1.59285-1.48158,2.68491,0,.88339.35475,1.70417,1.00163,2.30931.59122.55645,1.35638.86251,2.16323.86251.06958,0,.13912-.00696.20871-.00696,1.56504-.09739,2.83792-1.34942,2.95619-2.91446.09039-1.16856-.46607-2.28843-1.44681-2.92142-.2504-.15301-.39648-.41733-.39648-.75815,0-.44518.36863-.80689.81381-.80689h5.96805c.82774,0,1.4955-.67469,1.4955-1.49546v-5.96805c0-.50079-.40345-.90424-.9599-.90424-.30605,0-.59823.15997-.77212.43125-.61211.9599-1.69721,1.50242-2.83792,1.41204-1.52331-.11828-2.74057-1.35638-2.831-2.87969-.05566-.85559.24343-1.67636.8347-2.30235.5773-.61907,1.39115-.97382,2.23973-.97382,1.06425,0,2.03803.54257,2.60841,1.43985.15997.25736.45214.41733.82077.41733.49387,0,.89732-.4034.89732-.90424v-5.96805c0-.82077-.66777-1.49546-1.4955-1.49546h-16.19301c-.82774,0-1.49546.67469-1.49546,1.49546v5.96805c0,.50084.40345.90424.9599.90424.31302,0,.59818-.16693.77208-.43822.61211-.95293,1.70417-1.4885,2.83796-1.40503,1.52331.11824,2.73361,1.34942,2.831,2.87273.00692.06258.00692.1252.00692.18778,0,.79297-.29213,1.53724-.83466,2.12154-.5843.61211-1.39811.96682-2.24674.96682-1.06421,0-2.03803-.53556-2.60841-1.43985-.15997-.2504-.45906-.41037-.82077-.41037-.49383,0-.89728.40345-.89728.90424v5.96805c0,.82077.66772,1.49546,1.49546,1.49546ZM47.64979,24.35209c.76516,1.05725,1.98938,1.68328,3.31094,1.68328,1.12683,0,2.21192-.46602,2.98404-1.2868.77904-.8347,1.16856-1.91979,1.09898-3.06751-.11824-2.02411-1.73894-3.66569-3.76304-3.82566-1.42592-.10431-2.79623.52864-3.63092,1.67636v-5.68984c0-.26428.21563-.47991.47995-.47991h16.19301c.26432,0,.47995.21563.47995.47991v5.68984c-.77208-1.06425-1.98933-1.68332-3.31094-1.68332-1.12683,0-2.21192.46607-2.984,1.28684-.77904.8347-1.17552,1.91979-1.10598,3.06051.1252,2.03111,1.7459,3.67266,3.77001,3.82566,1.42596.11132,2.79623-.52168,3.63092-1.66935v5.6898c0,.26432-.21563.47995-.47995.47995h-5.96805c-1.00859,0-1.82937.82077-1.82937,1.88498,0,.62603.32694,1.21034.86251,1.55116.66777.43125,1.05033,1.18941.98775,1.98933-.08347,1.06425-.94601,1.91283-2.01022,1.97545-.60515.04173-1.17552-.16697-1.61374-.57734-.43822-.41737-.68165-.97382-.68165-1.57201,0-.74427.3756-1.42592,1.00859-1.8224.5286-.33386.84162-.91816.84162-1.60678,0-1.00163-.81381-1.8224-1.8224-1.8224h-5.96805c-.26432,0-.47995-.21563-.47995-.47995v-5.6898Z" />
    <path class="cls-2"
        d="M24.33414,77.00018v-5.96805c0-.50084-.41041-.90424-.96686-.90424-.30605,0-.59818.16693-.77208.43125-.61211.9599-1.70417,1.49546-2.83796,1.412-1.51635-.11824-2.73361-1.34942-2.82403-2.87273-.00696-.06954-.00696-.13908-.00696-.20866,0-.786.29213-1.52331.8347-2.10061.57734-.61211,1.39811-.96686,2.24669-.96686,1.05729,0,2.03111.53556,2.60144,1.43985.16697.2504.4591.41037.82082.41037.49383,0,.90424-.4034.90424-.90424v-5.96805c0-.82077-.67473-1.49546-1.4955-1.49546h-5.96805c-.4521,0-.81381-.36171-.81381-.85559,0-.29213.13912-.54949.36868-.69558.93205-.59122,1.48158-1.59285,1.48158-2.68491,0-.88339-.35475-1.70417-1.00163-2.30931-.63996-.60515-1.48158-.90424-2.36497-.85554-1.57201.09739-2.84492,1.34942-2.96316,2.91446-.09043,1.16856.46602,2.28843,1.45377,2.92142.24343.15301.38952.41733.38952.75815,0,.44518-.36171.80689-.81381.80689h-5.96805c-.82077,0-1.4955.67469-1.4955,1.49546v5.96805c0,.50084.40345.90424.9599.90424.31302,0,.59818-.15997.77208-.43125.61211-.9599,1.70417-1.49546,2.83796-1.412,1.52331.11824,2.74057,1.35634,2.831,2.87965.05566.85559-.24343,1.67636-.82774,2.30235-.57734.61907-1.39811.97382-2.24669.97382-1.06425,0-2.03803-.54253-2.60144-1.43985-.16001-.25736-.4591-.41733-.82082-.41733-.50079,0-.90424.4034-.90424.90424v5.96805c0,.82077.67473,1.49546,1.4955,1.49546h16.19993c.82077,0,1.4955-.67469,1.4955-1.49546ZM23.31859,77.00018c0,.26432-.21563.47995-.47995.47995H6.63871c-.26432,0-.47995-.21563-.47995-.47995v-5.6898c.77208,1.05725,1.98933,1.68328,3.31094,1.68328,1.12683,0,2.21192-.46602,2.984-1.28684.786-.83466,1.17552-1.91975,1.10598-3.06051-.12524-2.02415-1.7459-3.67266-3.77005-3.82566-1.412-.11132-2.79618.52168-3.63088,1.66935v-5.6898c0-.26432.21563-.47995.47995-.47995h5.96805c1.00855,0,1.82932-.82077,1.82932-1.88498,0-.62603-.31994-1.21029-.86251-1.55116-.66772-.43125-1.04336-1.18941-.98074-1.98933.0765-1.06421.94597-1.91283,2.01022-1.97541.59818-.0487,1.16856.16693,1.60678.5773.43822.41737.68165.97382.68165,1.57201,0,.74427-.3756,1.42592-1.00163,1.8224-.53561.3339-.84858.9112-.84858,1.60678,0,1.00163.82077,1.8224,1.82932,1.8224h5.96805c.26432,0,.47995.21563.47995.47995v5.6898c-.77208-1.05725-1.98933-1.68328-3.31094-1.68328-1.12683,0-2.21889.46602-2.99096,1.28684-.77904.83466-1.16856,1.91975-1.09902,3.06747.1252,2.02411,1.73894,3.66569,3.76309,3.82566,1.43288.10435,2.79618-.52864,3.63784-1.67632v5.6898Z" />
    <path class="cls-2"
        d="M136.70256,97.9706s-28.61979,3.35425-38.52698,4.53414c-2.89166.34439-5.55237,1.73147-7.4917,3.9065l-4.47738,5.02114c.06419-.37734.09879-.76146.09879-1.15065,0-2.04864-.90793-3.88535-2.33704-5.14303,1.15867-.78639,3.43139-2.76532,3.25541-6.12339-.01087-.20922-.14944-.3899-.34779-.45511-.19971-.06725-.41707-.00204-.55089.15895-.83007,1.00804-2.48138,1.34428-4.39354,1.7335-1.95329.39733-4.15252.85546-5.91799,2.17698-.88942-.25791-1.81366-.40132-2.75517-.42442-.02203-.00293-.04148-.01295-.06432-.01295-.00327,0-.09671.0048-.10796.00522-.00144-.00013-.00267-.00102-.00412-.00115-.01223-.00068-.08015-.00408-.09306-.00408-.02314,0-.04195.00993-.06389.01295-.94164.0231-1.86609.16655-2.75623.42446-1.76539-1.32152-3.96407-1.77969-5.91736-2.17703-1.91283-.38922-3.56414-.72546-4.39354-1.7335-.13382-.16167-.35322-.22688-.55089-.15895-.19835.06521-.33692.2459-.34779.45511-.17593,3.35743,2.09624,5.33624,3.25533,6.12296-1.42953,1.25767-2.33763,3.09455-2.33763,5.14345,0,.3891.0346.77318.09883,1.15048l-4.47675-5.02097c-1.93932-2.17503-4.60003-3.56211-7.4917-3.9065-9.90787-1.1799-38.52698-4.53414-38.52698-4.53414-.27443-.02717-.51081.14944-.55836.41368-.04755.26356.11819.51896.37835.58282l3.48598.85605.01499.15878c.23469,2.51445,1.78131,4.71127,4.04596,5.80163l.44743,1.17994c.84136,2.21507,2.74617,3.76928,5.04262,4.18903l.44862,1.27096c.55756,1.58245,1.96233,2.70465,3.61899,2.92843l.87168,1.36933c.98019,1.53787,2.65324,2.50244,4.47437,2.57988l1.62299.06971.66887,1.59315c.69965,1.66897,2.32107,2.7857,4.1293,2.84615l2.18344.07285.12881.64989c.42862,2.1696,2.34485,3.74415,4.55656,3.74415h17.40696c.12172.31603.25804.62646.40412.93366-1.9434,3.25108-5.38073,7.55835-10.81457,9.87628-.17321.07404-.29141.23775-.30635.42522-.01562.18748.07404.36817.23299.46938,2.08808,1.3307,4.51513,1.89585,6.52577,1.89585.31849,0,.62162-.01919.91625-.04678-1.16389,1.22524-2.83732,2.67311-5.11348,3.95464-.17797.10053-.2785.29752-.25473.50062s.1671.37224.36341.4293c1.41425.40824,3.00238.76622,4.60683.76622,1.30981,0,2.62917-.24764,3.875-.89172-.94567,1.61726-2.37716,3.64375-4.58823,5.20306-.15555.10936-.23639.29616-.21057.48364.02581.18816.15487.34643.3342.4096,1.31915.46462,2.62879.6949,3.88001.6949,2.01268,0,3.87457-.59572,5.38256-1.76339.55942-.44365,1.18716-1.01649,1.82797-1.80054-1.11558,4.26749-.98231,7.43222,3.30122,10.21061.0152.00985.03214.01393.04793.02195.00013.00008.00025.00013.00038.00021.07247.03672.1494.05935.22679.05935.00212,0,.00399-.00149.00611-.00153.00212.00004.00399.00153.00611.00153.09442,0,.1902-.02649.27578-.08151,4.28213-2.77797,4.41527-5.94317,3.29995-10.21112.64208.78583,1.27143,1.35999,1.83264,1.80512,1.50527,1.16495,3.36512,1.75932,5.37712,1.75932,1.25122,0,2.56154-.23027,3.88136-.6949.17933-.06317.30839-.22144.3342-.4096.02581-.18748-.05502-.37428-.21057-.48432-2.21112-1.55838-3.64256-3.58469-4.58802-5.20187,1.24549.64387,2.56447.89121,3.8741.89121,1.60444,0,3.19326-.35798,4.60751-.76622.19631-.05706.33964-.2262.36341-.4293s-.07676-.40009-.25473-.50062c-2.27569-1.28107-3.94942-2.72923-5.11348-3.9546.29459.0276.59763.04674.91625.04674,2.00997,0,4.43701-.56515,6.52509-1.89585.15895-.10121.24861-.2819.23299-.46938-.01494-.18748-.13314-.35118-.30635-.42522-5.43295-2.31717-8.87024-6.6249-10.81432-9.8759.14613-.30729.28253-.61788.40429-.93404h17.40653c2.21103,0,4.12794-1.57455,4.55724-3.74415l.12838-.64994,2.18318-.07281c1.80822-.06046,3.42897-1.17718,4.12998-2.84615l.66828-1.59315,1.62291-.06971c1.82181-.07744,3.49486-1.042,4.47437-2.58056l.87197-1.36827c1.65237-.22119,3.06051-1.34437,3.62006-2.92881l.44785-1.27105c2.29675-.41992,4.20134-1.97405,5.04203-4.18895l.44798-1.1799c2.26406-1.09032,3.81072-3.28653,4.04609-5.80167l.01477-.15886,3.4862-.85597c.26016-.06385.4259-.31926.37835-.58282-.04755-.26424-.2982-.44085-.55836-.41368ZM91.44195,107.08644c1.77358-1.98959,4.20809-3.25915,6.85318-3.57365,6.52764-.77768,21.17467-2.49828,30.41065-3.58231l-16.06917,3.94572-.00501.00123c-.00047.00013-.00093.00021-.0014.00034l-13.25843,3.25554c-2.65256.65074-5.03884,2.05072-6.90073,4.04846l-7.94549,8.52143c-.13399-1.27168-.34821-2.64704-.63661-4.14615l.27324-.30644.00144-.00161c.27027-.25655.52279-.54019.75229-.84395l.00433-.00488,6.5217-7.31373ZM109.91205,108.17599c-1.80538,3.04866-4.16942,5.60519-6.91007,7.59036-.07561.03337-.14129.08096-.19164.14422-4.68643,3.32627-10.458,4.98289-16.45886,4.52765l-1.04969-.08045,7.91102-8.4845c1.72739-1.85238,3.94046-3.15115,6.40079-3.75502l12.09143-2.96897-1.79298,3.02671ZM73.60552,138.11565c.03617-7.32863,1.80754-9.37901,5.34596-12.76222l.2459-.23435c1.57672-1.50098,3.44141-3.2777,4.22283-6.29681,1.1554,8.08368-.59063,12.01824-9.81468,19.29338ZM62.77596,118.86757c.78825,2.99024,2.64008,4.75767,4.20809,6.25084l.24658.23503c3.5388,3.38358,5.31077,5.43414,5.3466,12.76472-8.44247-6.62605-10.98549-10.28627-9.80127-19.25059ZM43.37458,115.91439c-.05188-.06627-.12006-.11573-.19924-.14961-2.73883-1.98534-5.101-4.54145-6.90527-7.58879l-1.79247-3.02675,12.09093,2.96902c2.46033.60387,4.6734,1.90264,6.40079,3.75502l7.91166,8.4845-1.05033.08045c-6.00222.45719-11.7715-1.19904-16.45606-4.52383ZM73.0914,103.21276c.68021.00692,1.34988.08656,2.00262.22845-.95858,1.00596-1.62227,2.28062-2.00296,3.86421-.38069-1.58355-1.04438-2.85812-2.00288-3.86408.65325-.14193,1.32331-.22166,2.00322-.22858ZM73.07034,111.40389c.00072-.00004.00136-.00047.00208-.00051.00242-.00008.00501,0,.00743-.00017.00335-.00017.00824-.0014.01189-.0017.00369.0003.00845.00153.01189.0017.00187.00017.00399.00008.00594.00017.00081.00004.0014.00047.00221.00051.36952.01223.65889.3016.65889.65822,0,.00883-.01019.22824-.36477,1.06374-.09259.21826-.20068.45668-.31506.70177-.11475-.24573-.22272-.4839-.31438-.70054-.00017-.00042-.00008-.00081-.00025-.00123-.35458-.83551-.36477-1.05491-.36477-1.06306,0-.3573.28937-.64667.65889-.65889ZM72.22936,114.38072c.12766.26971.26424.54919.41032.83525.00586.01146.01834.01584.02492.02666.03536.05876.08172.10873.14018.15008.01401.00985.0242.02267.03906.03099.00662.00374.01044.01023.01728.01371.07404.03736.15216.05502.22959.05502.00025,0,.00042-.00017.00068-.00017s.00042.00017.00068.00017c.07744,0,.15623-.01766.23027-.0557.00645-.00327.01006-.00942.0163-.01295.0155-.00866.02615-.02203.04076-.03235.0577-.04097.10355-.09026.13857-.14846.00684-.01121.01974-.01579.02581-.02768.14507-.28466.28135-.56405.40913-.83436,1.28429,1.72068,3.31277,2.75874,5.4951,2.75874.93268,0,1.83811-.20132,2.68181-.56129-1.4339,3.70288-4.99057,6.22821-9.03844,6.27032-4.04846-.04211-7.60514-2.56735-9.03857-6.27024.84349.35984,1.74891.56121,2.68194.56121,2.18187,0,4.2103-1.0381,5.49459-2.75895ZM73.09118,132.65519c-.80379-3.6769-2.55356-5.54359-5.15954-8.03537l-.24726-.23639c-1.61514-1.538-3.39301-3.24247-4.03148-6.23228,1.80848,3.37284,5.31807,5.60336,9.26553,5.70389.02403.00348.04538.01418.07039.01418.00327,0,.09671-.0048.10796-.00522.00144.00013.00267.00102.00412.00115.01223.00068.08015.00408.09306.00408.0253,0,.04606-.01057.06997-.01418,3.94751-.1004,7.45748-2.33143,9.26621-5.70496-.63843,2.99101-2.41719,4.69577-4.0331,6.23402l-.24658.23571c-2.60599,2.49178-4.35571,4.35847-5.15929,8.03537ZM85.29045,110.28174c0,1.25347-.39814,2.45124-1.1489,3.46637l-.71706.80447c-.13225.12303-.26916.24012-.41164.35093-.00021.00017-.00025.00038-.00047.00055-.01562.01138-.03545.02564-.03825.02798-.00021.00017-.0003.00042-.00051.00059l-.08304.06326c-.05774.04483-.11548.08966-.17593.13042-.00025.00017-.00042.00051-.00068.00068h0c-.9666.65278-2.09556.99785-3.26594.99785-2.05943,0-3.95065-1.09032-5.00564-2.84993.2993-.74198.34312-1.03958.34312-1.21212,0-.74529-.48831-1.36695-1.17051-1.58538-.00255-.06546-.01006-.12957-.01006-.19567,0-2.74019,1.9434-5.14345,4.62109-5.71268.40485-.08627.81581-.12974,1.22201-.12974,3.22179,0,5.84242,2.62063,5.84242,5.84242ZM82.13387,101.44712c1.50663-.30703,2.95076-.60116,4.02605-1.2682-.366,2.49569-2.35742,3.89151-3.05702,4.31109-1.0595-.67104-2.31076-1.06552-3.65487-1.06552-.47685,0-.95845.05095-1.43259.15148-1.05109.22369-2.00228.69205-2.80756,1.33116.34596-.50402.75-.94873,1.22214-1.3298,1.60716-1.29605,3.68981-1.7206,5.70385-2.1302ZM60.02287,100.17959c1.07461.66705,2.51874.96049,4.02605,1.26752,2.01404.4096,4.09669.83415,5.70317,2.1302.47214.38107.87613.82578,1.22214,1.3298-.80532-.63911-1.75647-1.10747-2.80756-1.33116-.47277-.10053-.95506-.15148-1.43191-.15148-1.34411,0-2.59529.39432-3.65478,1.06518-.70025-.41996-2.69119-1.81561-3.05711-4.31007ZM66.73476,104.43931c.40621,0,.81716.04347,1.22133.12974,2.67769.56923,4.62109,2.9725,4.62109,5.71268,0,.06623-.00743.13025-.00985.19567-.68237.21851-1.17073.8406-1.17073,1.58538,0,.17254.04381.47014.34312,1.21212-1.055,1.75961-2.94618,2.84993-5.00497,2.84993-1.17107,0-2.30002-.34507-3.26594-.99785-.00038-.00025-.00081-.00025-.00119-.00051-.00034-.00025-.00051-.00059-.00085-.00085-.06249-.04211-.12227-.08898-.18205-.13518l-.07676-.05842c-.00713-.00543-.01588-.00624-.02318-.01121-.00594-.00509-.00862-.01244-.01486-.01732-.1435-.11161-.28143-.22955-.41457-.35343l-.71239-.79848c-.75268-1.01704-1.15132-2.21596-1.15132-3.46985,0-3.22179,2.62131-5.84242,5.8431-5.84242ZM54.74085,107.08644l6.52102,7.31373c.00025.0003.00068.00038.00093.00068.22959.30474.48436.59012.75764.84947.00008.00008.00008.00021.00017.0003l.27315.30682c-.28839,1.4989-.5027,2.87413-.63669,4.14569l-7.946-8.52135c-1.86189-1.99774-4.24817-3.39772-6.90073-4.04846l-13.26416-3.25711-16.07117-3.94606c9.23573,1.08378,23.88475,2.80497,30.41265,3.58265,2.64509.3145,5.0796,1.58406,6.85318,3.57365ZM13.8435,100.08275l19.25318,4.7274,1.7172,2.8996-15.73756-2.2821c-.56244-.08219-1.10586-.23842-1.61599-.46598-.00076-.00034-.00157-.00017-.00233-.00051-1.9805-.878-3.34521-2.73666-3.61449-4.87841ZM18.24285,106.60347l-.13212-.34842c.26937.07166.54138.13611.81954.17657l16.55443,2.40046c.58413.97272,1.22061,1.89908,1.90859,2.77275l-14.38194-1.36725c-2.16756-.20582-3.9948-1.59833-4.76849-3.63411ZM23.74224,112.08588l-.27702-.78524,14.85565,1.41229c.91604,1.04043,1.90918,1.9932,2.96269,2.86398l-14.49844-1.19493c-.00662-.00102-.01295-.00085-.01957-.00161l-.0155-.00127c-.00722-.00081-.01367.00263-.02085.00217-.00603-.00072-.01108-.00437-.01719-.00488-1.35311-.11208-2.51806-1.01076-2.96978-2.29051ZM28.13238,116.17578l-.44705-.70199,15.08631,1.24337c1.16843.83126,2.39495,1.57315,3.68115,2.19821l-12.54082-.5368c-.09913-.04139-.21151-.04352-.32461-.01393l-1.79302-.07701c-1.49032-.06385-2.85974-.85317-3.66196-2.11186ZM34.97877,120.57136l-.48385-1.15247,14.69555.62901c2.74379.96372,5.6662,1.48056,8.67164,1.48056.67791,0,1.36058-.02581,2.04597-.07812l1.6168-.12384c-.04148.78664-.04318,1.52985-.01053,2.24241l-20.72236-.68734-.00794-.00025c-.00391-.00004-.00764-.00042-.01155-.00038l-2.5665-.08563c-1.41357-.04687-2.68041-.91974-3.22722-2.22394ZM45.04083,127.26219c-1.72807,0-3.22587-1.23084-3.56075-2.92631l-.08291-.4183,20.19011.66968c.09684.94406.26997,1.82945.51956,2.67493h-17.066ZM53.34698,139.60526c3.96551-1.9203,7.40721-5.1404,10.04772-9.36195.73404,1.26179,1.69313,2.4762,2.89243,3.71965-1.46596,3.01792-3.34847,5.18637-5.75616,6.62384-.00425.00255-.00692.00696-.01112.00959-1.69899.51345-4.62487.31264-7.17286-.99114ZM55.83583,146.04544c2.53572-1.6024,4.25225-3.359,5.29289-4.634,2.45977-1.48981,4.39315-3.68841,5.90971-6.69321.69889.67796,1.47096,1.36992,2.31539,2.08651-1.48069,3.51961-3.25728,6.11294-5.28725,7.69535-.00153.00119-.00212.00297-.00361.00416-.00739.00582-.01274.01363-.01983.01991-.00509.0045-.01172.00582-.01664.01057-2.40938,2.31972-5.51366,2.14786-8.19067,1.5107ZM67.05538,150.81869c-.9503.73565-3.48263,2.22937-7.37554,1.1962,2.71437-2.20967,4.16462-4.99333,4.97635-6.55091l.12732-.24348c2.07199-1.65021,3.87877-4.25518,5.38145-7.73793.73536.60549,1.52382,1.23207,2.36319,1.88422-1.29295,7.3831-3.7391,10.07675-5.47277,11.4519ZM74.51379,146.18197c1.99753,6.22086,3.10092,9.70188-1.42274,12.80238-4.5243-3.1005-3.42022-6.58219-1.42206-12.80238.00365-.01129.00098-.02259.00378-.03392.52215-1.21806,1.00592-2.68584,1.41858-4.45471.41262,1.76891.89643,3.23678,1.41866,4.45501.0028.01125.00017.02242.00378.03362ZM86.50295,152.01489c-3.89427,1.03725-6.42524-.45987-7.37147-1.19212-1.73834-1.37918-4.18385-4.07224-5.47685-11.45598.8392-.65202,1.62754-1.27848,2.36276-1.88384,1.50387,3.48378,3.31056,6.0887,5.38192,7.73759l.12796.24479c.81105,1.55689,2.2613,4.33987,4.97567,6.54955ZM90.34696,146.04544c-2.67565.63716-5.78197.80969-8.19067-1.5107-.00492-.00471-.01146-.00603-.01651-.01053-.00713-.00637-.01261-.01414-.02004-.02004-.00144-.00115-.00204-.00293-.00352-.00408-2.02924-1.58169-3.80643-4.1743-5.28776-7.69497.84442-.71659,1.61663-1.40856,2.31551-2.08651,1.5172,3.00468,3.45109,5.20374,5.9101,6.69283,1.04132,1.27499,2.75717,3.03227,5.29289,4.634ZM92.83513,139.60526c-2.54799,1.30378-5.47388,1.50459-7.17218.99114-.0042-.00263-.00684-.00705-.01112-.00959-2.40688-1.43738-4.29007-3.60575-5.75662-6.62346,1.1993-1.24349,2.15839-2.45791,2.89247-3.71974,2.6411,4.22138,6.08272,7.44139,10.04746,9.36165ZM101.14128,127.26219h-17.06562c.24955-.84548.42272-1.73087.51956-2.67489l20.19011-.66972-.08262.4183c-.33556,1.69546-1.83336,2.92631-3.56143,2.92631ZM107.97612,122.7953l-2.56179.08546c-.00331,0-.00654.0003-.00985.00034l-.01435.00047-20.72198.68734c.03265-.7126.03095-1.45577-.01049-2.24241l1.61637.12384c.68607.0523,1.36738.07812,2.04597.07812,3.00506,0,5.92721-.51684,8.67083-1.48047l14.69662-.62909-.48343,1.15247c-.54749,1.3042-1.81434,2.17707-3.2279,2.22394ZM114.38778,118.28764l-1.81043.07778c-.07408-.01346-.14664-.0107-.21826.00938l-12.63073.54066c1.28625-.62506,2.51288-1.36691,3.68136-2.19817l15.08737-1.24349-.44734.70199c-.80154,1.25869-2.17096,2.04801-3.66196,2.11186ZM119.43885,114.37843l.00008.00132c-.00217.00021-.00403-.00085-.0062-.00064l-14.53482,1.19794c1.05359-.87074,2.04686-1.82359,2.96303-2.86403l14.85607-1.41238-.27646.78524c-.45172,1.27975-1.61735,2.17843-3.00171,2.29255ZM123.17077,110.23758l-14.3822,1.36733c.68806-.87367,1.32454-1.79999,1.90876-2.77271l16.55519-2.40059c.27803-.04042.54979-.10486.81899-.17648l-.13225.34834c-.77301,2.03578-2.60026,3.42829-4.76849,3.63411ZM128.7248,104.96116c-.00076.00034-.00157.00017-.00233.00051-.51013.22756-1.05423.38379-1.61599.46598l-15.73811,2.28219,1.71771-2.89969,19.25318-4.72753c-.26984,2.14247-1.63454,4.00117-3.61445,4.87854Z" />
    <path class="cls-2"
        d="M67.46676,113.09354c1.37026,0,2.47625-1.1129,2.47625-2.47625,0-1.37026-1.10598-2.47625-2.47625-2.47625-1.36334,0-2.47625,1.10598-2.47625,2.47625,0,1.36334,1.1129,2.47625,2.47625,2.47625ZM67.46676,109.15661c.80685,0,1.46069.65384,1.46069,1.46069,0,.80689-.65384,1.46073-1.46069,1.46073-.80689,0-1.46073-.65384-1.46073-1.46073,0-.80685.65384-1.46069,1.46073-1.46069Z" />
    <path class="cls-2"
        d="M78.7142,108.14105c-1.36334,0-2.47625,1.10598-2.47625,2.47625,0,1.36334,1.1129,2.47625,2.47625,2.47625s2.47625-1.1129,2.47625-2.47625c0-1.37026-1.1129-2.47625-2.47625-2.47625ZM78.7142,112.07803c-.80689,0-1.46073-.65384-1.46073-1.46073,0-.80685.65384-1.46069,1.46073-1.46069.80685,0,1.46069.65384,1.46069,1.46069,0,.80689-.65384,1.46073-1.46069,1.46073Z" />
    <path class="cls-2"
        d="M80.47399,68.93844c.09739.09043.22955.13912.36868.13216.06954-.00696,7.19919-.44518,13.42459.25736,6.97664.786,10.64229,2.78926,11.94301,3.65177l.14609,1.0851c.5843,4.26388,1.27291,8.48603,2.05196,12.55512.0487.22955.26432.39648.50079.39648.23651,0,.43822-.16693.47995-.39648.21563-1.12683.42433-2.26754.62603-3.41526.4521-.17389,3.58915-1.48158,4.00652-4.66036.27124-2.09369-.41041-3.54045-2.16327-5.29332.79993-.59818,4.45866-3.0327,12.33258-3.92305,6.22541-.70254,13.35505-.26432,13.42459-.25736.13216.00696.27128-.04173.36868-.13216.09735-.09043.15997-.22259.15997-.36171v-32.19816c0-.27128-.22259-.49387-.49387-.49387h-4.77164l-.0487-5.26547c-.00696-.26432-.20866-.47303-.46602-.48691-.22259-.01393-5.6133-.30605-11.8109,1.24506-2.99096.74427-5.20985,1.87806-6.76097,2.9075,0-.25736-.01393-.54949-.02089-.84858-.01388-.633-.02781-1.28684-.04173-1.64155h2.01718c.27128,0,.49387-.21567.49387-.48691v-3.40137c0-.27128-.22259-.49387-.49387-.49387h-1.59285v-1.86414c0-.27128-.22259-.49383-.49387-.49383h-1.10373l-.4563-12.35877c.00051-.00068.00144-.00093.00195-.00161.02085-.01393.02781-.02781.04173-.0487l1.43288-2.38582c.04173-.0765.06954-.16693.06954-.25736v-2.55971c0-.16693-.09043-.32694-.23647-.41737-.14609-.09043-.31998-.09735-.47995-.02085l-2.00326,1.00163-1.80156-1.14772c-.15997-.10431-.36863-.10431-.5286,0l-1.80852,1.14772-2.00326-1.00163c-.15301-.0765-.33386-.06958-.47995.02085-.14604.09043-.22951.25044-.22951.41737v2.55971c0,.09043.02085.18086.06954.25736l1.43288,2.38582c.01367.02051.02734.04076.04101.05468l-.45554,12.3544h-1.10182c-.27128,0-.49387.22255-.49387.49383v1.86414h-1.59981c-.27128,0-.48691.22259-.48691.49387v3.40137c0,.27124.21563.48691.48691.48691h2.10065l-.04173,2.08673c-1.50247-.91816-3.52657-1.85722-6.12802-2.5041-6.19064-1.55112-11.58134-1.25899-11.80393-1.24506-.25736.01388-.46602.22259-.46602.48691l-.0487,5.26547h-4.77164c-.27128,0-.49387.22259-.49387.49387v32.19816c0,.13912.05566.27128.15997.36171ZM107.19801,72.91716l-.06262-.5078h-.00696l-.08347-.66772c-.06258-.5078-.1252-1.00859-.18778-1.50943.50079.43822,1.02248.87643,1.54416,1.30768v9.41115c-.38952-2.31628-.75123-4.66036-1.07117-7.01837l-.13216-1.01551ZM102.59331,48.85719l-.02089.00696s-.00225.00267-.00429.00429c-.32665.16663-.69893.20013-1.04918.09332-.36001-.11004-.6555-.35322-.83211-.68539-.36545-.68607-.10461-1.54195.58078-1.90604.22934-.12214.48411-.17271.74355-.15946l5.14082-.00539-.00267.00157-4.55601,2.65014ZM108.47089,37.28977c-.25736-.6608.02785-1.412.65384-1.7459.68866-.36863,1.5442-.10431,1.90591.5843.06258.11127.10431.22955.13212.34779.03481.13912.04178.2782.02785.42429,0,0,0,.02781-.00696.06262,0,.00692,0,.02085-.00696.03477,0,0,.00696,0,0,.00696.00696.00696.00696.02085,0,.02781-.00696.02089-.00696.04173-.00696.06262v.02781c-.08347.87643-.39648,4.11083-.62599,6.04455-.38256-1.78067-1.5442-4.61863-2.05892-5.82892-.00696-.02089-.00696-.03477-.01393-.0487ZM112.97128,36.13514c.31998-.15305.67469-.17389,1.00859-.06958.36167.10435.66076.34779.83466.68169.27128.51472.20871,1.12683-.16693,1.57196-.03477.04173-.06258.08351-.08347.13216l-.00115.0034c-.03133.04415-.06084.08954-.08924.13585l-2.87324,4.25445c.00013-.00161.00034-.00301.00047-.00463.22955-1.9963.51476-4.89683.57734-5.65499v-.00696q.00696-.00696.00696-.01393c.02781-.18782.09739-.36171.2017-.51472.16693-.15997.36171-.32694.5843-.51472ZM117.88399,40.26707c-.10958.35849-.3522.6527-.68959.83355l-4.74485,2.30031,2.87714-4.26027c.13144-.22259.31794-.4065.54664-.52898.33216-.17593.71256-.21329,1.07461-.10393.36001.11004.6555.3539.83211.68607s.21329.71324.10393,1.07325ZM109.38905,81.04147v-8.66688c.42433.36171.80689.69558,1.14772,1.01556-.34083,2.58752-.73035,5.14027-1.14772,7.65133ZM111.07237,69.12626c-.00696.09043-.02089.17389-.02785.26432-.11127.92508-.22259,1.85021-.34779,2.77534-.3269-.29213-.68165-.59818-1.06421-.9112l-.15305-.13216c-.02781-.02781-.06258-.0487-.09043-.0765v-21.97324c.24348.05566.50084.08347.75123.08347.42429,0,.86251-.08347,1.27291-.24343.3269.33386.75119.786,1.18249,1.31465-.27825,6.28102-.77908,12.54816-1.50247,18.72487-.00696.05566-.01393.11824-.02085.17389ZM108.20656,46.71481v-.00696c.04178-.05562.07655-.11824.08351-.18778l.00692-.00696c.22259-.43125.65384-.97382,1.43288-1.39115,1.04336-.55645,1.88502-.45214,2.57364-.23651.22259.51476.25736,1.07121.10435,1.60678-.18086.5843-.57734,1.07121-1.11987,1.36334-1.12683.59818-2.54583.22955-3.19271-.79993.02089-.09039.0487-.20866.11127-.34083ZM113.52077,51.4656c.68861,1.00859,1.22422,2.07976,1.18249,2.91446-.05566,1.1616-.85554,1.8711-1.47462,2.24669.11824-1.71805.21563-3.43614.29213-5.16116ZM112.31047,48.39117c.13216-.11132.25736-.22955.36868-.35475-.00696.23647-.01393.47299-.02785.7095-.1252-.13216-.23647-.25044-.34083-.35475ZM107.23278,37.03242c.00696.00696.01393.00696.01393.01393.02781.04173.04173.0765.06258.1252l.00696.00696s.01393.02781.02781.06258c.02785.0765.09043.20866.16693.38952.00696.00696.00696.02089.01393.02785.54953,1.29376,2.00326,4.86206,2.1215,6.33668,0,.01393,0,.03477.00696.0487-.03477.01388-.06258.02781-.09739.04173-.02781-.03477-.05562-.06262-.09735-.09043-1.27988-.87643-3.48484-3.88828-4.2778-5.00815,0-.00696-.00696-.01393-.01393-.02085-.00692-.02089-.01388-.03481-.02781-.05566-.01393-.01393-.02085-.03477-.04173-.0487-.02089-.03477-.0487-.0765-.0765-.10435-.04173-.05562-.06958-.10431-.09739-.13908-.02781-.03481-.04173-.06262-.04173-.06262-.04173-.05566-.08347-.11824-.11824-.18782-.36171-.68165-.10435-1.53719.58426-1.90587.11828-.06258.23651-.10431.36171-.13216.59818-.1252,1.22422.13912,1.52331.70254ZM104.20009,39.35565c.00692.00692.01388.02085.02085.02781.63992.9112,2.87969,4.02736,4.39604,5.25158-.04173.02785-.08347.06262-.1252.09739l-.00013.00013c-1.69249-.85126-5.20467-2.75547-5.89702-3.13166-.00233-.0014-.0062-.00412-.00828-.00552-.00781-.00391-.01558-.00781-.02335-.01167-.05477-.02976-.09438-.05133-.09782-.0532-.00008-.00004-.00013-.00004-.00021-.00008-.2349-.13212-.42875-.32575-.55335-.568-.36167-.68169-.10431-1.53724.5843-1.90591.57734-.30601,1.27291-.17389,1.70417.29913ZM102.11799,42.49665c.60638.32945,3.22277,1.7479,5.04245,2.694l-5.14456.00539c-.08368-.00357-.16727-.00692-.25078-.00127-.01966-.00004-.03719-.00726-.05731-.00501-.57806.06113-1.12216-.22959-1.39319-.73973-.17661-.33216-.21329-.71324-.10325-1.07325.10936-.36001.35322-.65618.68607-.83347.38133-.20208.82532-.21809,1.22057-.04666ZM107.12147,47.3965c.00696,0,.00696.00692.00696.00692.29909.55649.74427,1.00163,1.27291,1.30076v21.5211c-.3756-.31998-.75123-.63996-1.1129-.9599v-.00696c-.20871-.17389-.41041-.35475-.60515-.54257-.01393-.0765-.02089-.15301-.02785-.22951-.34779-2.97012-.63992-5.98893-.87643-8.97294l-.11127-1.4955c-.22955-3.07443-.40345-6.18363-.52168-9.24418,0-.06954-.02089-.13216-.0487-.19478l2.02411-1.18244ZM104.92347,61.10626c.18086,2.17715.39648,4.35431.63992,6.51754-1.2381-1.29376-2.12846-2.58056-2.16323-3.7422-.04173-1.35634.93901-2.31623,1.52331-2.77534ZM113.01301,78.41217c-.25736,1.96849-1.88502,3.09532-2.78926,3.57527.43822-2.53887.8347-5.11942,1.19641-7.73479,1.46069,1.53724,1.79455,2.61537,1.59285,4.15953ZM132.62824,64.09723c.14604-.02085.25736-.04865.34779-.13908.09735-.09739.14604-.22259.14604-.35475l-.23647-26.73095h4.27084v31.1826c-1.78067-.08347-7.74175-.30605-13.07685.29217-7.18526.80685-10.96223,2.85184-12.38123,3.79781.11132-.87639.22259-1.75282.32694-2.62925v-.00696c1.19637-.76512,4.70902-2.84492,9.66151-4.10391,5.21681-1.32853,10.89273-1.30072,10.94143-1.30768ZM120.7965,32.33728c5.02203-1.25899,9.61285-1.27291,11.0527-1.2381l.28517,32.0173c-1.52331.02781-6.25321.2017-10.69099,1.32853-4.403,1.11991-7.65133,2.831-9.27899,3.81874.39648-3.45703.72343-6.94883.97382-10.45452.7095-.30605,2.48321-1.29376,2.5806-3.38745.01388-.3269-.03481-.67469-.13216-1.02944h.01388c.0487-.01393,4.75775-1.34245,5.10554-6.448.01393-.17389-.06954-.34083-.20866-.44518-.14609-.10431-.32694-.11824-.49387-.05562-3.63088,1.49546-4.64644,4.2708-4.9316,5.6411-.40345-.786-.94601-1.56504-1.47466-2.22585.08351-1.92676.14609-3.85347.18086-5.78023,0-.06254-.00705-.12507-.02777-.18064l3.83233-1.8579c.00212-.00098.00442-.00047.0065-.00144.00641-.00323.04458-.02254.06691-.03413l.00102-.00051s.00008-.00004.00013-.00008c.00543-.0028.01524-.00781.01685-.00875.57195-.30363.99106-.81241,1.1799-1.43123.18952-.6195.12634-1.27567-.17797-1.84626-.52431-.98673-1.63824-1.45262-2.68016-1.21492.00013-.00378.00102-.00747.00115-.01125.01393-.41733-.08347-.83466-.28517-1.21726-.29213-.55645-.77904-.95985-1.36334-1.15464,1.47462-.9877,3.59611-2.0728,6.448-2.7823ZM116.10137,52.11944c.26432-1.09902,1.05729-3.05359,3.47788-4.35431-.52168,2.60841-2.39974,3.84655-3.47788,4.35431ZM112.82519,34.9735v.13216c-.11824.04173-.22951.08347-.34083.13912-.00696,0-.01393.00696-.01393.01393-.01388,0-.02781.00696-.04173.01393-.18778.09735-.35471.22255-.50776.36863-.50079-.93901-1.53724-1.412-2.5319-1.24506v-2.60144h3.39441c-.02781.54949,0,1.51635.04173,3.17874ZM111.33835,18.8209l-1.71733-1.4238,1.61531-1.33906.10202,2.76286ZM111.11907,12.88207l.07137,1.93317-2.34192,1.9414-2.32116-1.92438.07192-1.95019h4.5198ZM106.48151,16.0763l1.59374,1.32131-1.69428,1.40452.10053-2.72584ZM106.31509,20.58914l1.76,1.45908-1.87097,1.55108.11098-3.01015ZM106.81601,19.72238l2.03179-1.6843,2.03217,1.68485-2.03166,1.68426-2.0323-1.68481ZM111.40297,20.57135l.1125,3.047-1.89394-1.57014,1.78143-1.47687ZM105.06259,9.87021v-1.62766l1.53719.77212c.15305.0765.34087.06954.48691-.02785l1.77371-1.13379,1.77375,1.13379c.14604.09739.3269.10435.48687.02785l1.53724-.77212v1.62766l-1.21726,2.02411h-5.16116l-1.21726-2.02411ZM106.15571,24.91181c.01176-.00811.02539-.01151.03664-.02076l2.65596-2.20182,2.65596,2.20182c.01826.01503.03986.02165.05944.03367l.0048.12991h-5.41805l.00526-.14282ZM104.55479,26.04234h8.61122v1.37026h-8.61122v-1.37026ZM102.46115,30.81397v-2.41363h1.50242c.02781,0,.06262.00692.09739.00692h9.59893c.03477,0,.06954-.00692.09739-.00692h1.49546v2.41363h-12.7916ZM105.05563,31.79476h3.34571v3.00485c-.38256.26432-.67469.633-.84166,1.05033-.43125-.36167-.98074-.56341-1.53719-.56341-.35475,0-.7095.06958-1.04336.23651l.02085-1.00859.05566-2.71968ZM86.60896,31.09918c1.43288-.03481,6.0237-.02089,11.0527,1.2381,2.7823.69558,4.86903,1.7459,6.34364,2.71276l-.02781,1.34245c-.29909.4521-.43125.9877-.38952,1.53027-.52168-.09739-1.07121-.02785-1.57201.23647-1.17552.633-1.62766,2.08673-1.00859,3.26921,0,.00233.00127.0034.00233.00471-.20204.04759-.40056.11437-.58914.21486-.57195.30431-.99106.81309-1.1799,1.43259-.18952.61882-.12567,1.27499.17797,1.84558.20675.38944.50784.70254.86391.9233-.78019.72992-1.01704,1.91551-.49167,2.90372.30363.57127.81241.99038,1.43191,1.17922.23367.07132.47277.10665.71052.10665.38379,0,.7635-.09467,1.11333-.27642.00178-.00085.00395-.00034.00573-.00123.01393,0,.02089-.00696.03477-.01388l.06958-.04173,1.01551-.59126c.11828,2.97708.28521,5.99585.5078,8.9799l.06954.86947c-1.01556-1.2938-3.01185-3.01185-6.3228-2.7058-.17389.01388-.3269.11824-.4034.27128-.08347.15301-.07655.34083.01388.48687,1.67636,2.84492,4.01348,3.70046,5.55072,3.93698-.62603.66772-1.24511,1.66243-1.20337,2.95619.02785.95293.4591,1.91283,1.14075,2.87273-1.70417-.79993-3.90913-1.67636-6.51057-2.33716-4.43777-1.12683-9.16768-1.30072-10.69099-1.32853l.28517-32.0173ZM104.26963,60.0142c-1.12683-.0765-3.22748-.54253-4.87599-2.77534,2.72664.08347,4.22911,1.78067,4.87599,2.77534ZM81.30172,36.87245h4.27084l-.23647,26.73095c-.00696.13216.04865.25736.13908.35475.09739.09043.20871.11824.35475.13908.0487,0,5.71069-.02085,10.94143,1.30768,3.90217.98775,6.91398,2.49017,8.5973,3.46399.11824.11824.2504.23647.3756.35475.01393.10431.02089.2017.03477.30605.08347.72338.17389,1.44677.26432,2.18407-1.80152-1.05033-5.46025-2.67098-11.66477-3.36656-5.33509-.59823-11.3031-.37564-13.07685-.29217v-31.1826Z" />
    <path class="cls-2"
        d="M90.19276,37.14853c3.215.11208,6.34576.73497,9.30468,1.85238.05774.02174.11683.03193.17457.03193.19903,0,.38719-.12159.46123-.31858.09646-.25541-.03193-.54002-.28665-.6358-3.06012-1.15544-6.29686-1.80007-9.61986-1.91623-.28054-.01902-.50062.2031-.51013.47617-.00951.27239.20378.50062.47617.51013Z" />
    <path class="cls-2"
        d="M97.71639,42.91487c.09034-.25677-.04415-.53866-.30092-.62969-2.24364-.79271-4.60615-1.21386-7.02232-1.25122h-.00747c-.26899,0-.48908.21601-.49315.48568-.00408.27239.21329.49655.48568.50062,2.30885.036,4.56607.43813,6.7085,1.19552.05434.01902.11004.02785.16438.02785.2031,0,.3933-.12634.4653-.32877Z" />
    <path class="cls-2"
        d="M97.02285,46.89134c-2.12205-.68335-4.35889-1.0128-6.60253-.99513-.27239.00272-.49111.22552-.4884.49791.00272.27103.2228.4884.49315.4884h.00475c2.16688-.03193,4.26991.29684,6.29142.94759.05027.0163.10053.02377.1508.02377.20854,0,.40213-.13314.46938-.34235.08355-.2588-.0591-.5373-.31858-.62018Z" />
    <path class="cls-2"
        d="M99.41864,53.61953c.05842.02242.11819.03261.17661.03261.19835,0,.38583-.12023.46055-.31654.09782-.25473-.02989-.54002-.28394-.63716-3.05537-1.16903-6.2921-1.82656-9.61986-1.95495-.28869.00951-.50198.2031-.51217.47413-.01019.27239.20174.5013.47413.51217,3.22043.12363,6.35052.75943,9.30468,1.88974Z" />
    <path class="cls-2"
        d="M96.38977,56.57708c-1.84966-.61135-3.78762-.92109-5.76023-.92109-.30228.00136-.54478.20514-.5441.49451.00068.27171.22144.49179.49315.49179.01834.00475.03328,0,.05095,0,1.86732,0,3.70068.29345,5.45048.87219.05162.01698.10393.02445.15487.02445.20718,0,.40009-.1311.4687-.33828.08491-.2588-.05502-.53798-.31382-.62357Z" />
    <path class="cls-2"
        d="M128.68714,55.07046c-3.48739.13518-6.87967.82464-10.08312,2.05004-.25473.09714-.38243.38243-.28462.63648.07472.19699.2622.31722.46055.31722.05842,0,.11819-.01019.17593-.03261,3.10292-1.18669,6.38992-1.85441,9.7693-1.98483.27239-.01087.48432-.23978.47413-.51217-.01019-.27307-.2459-.47413-.51217-.47413Z" />
    <path class="cls-2"
        d="M120.68939,51.76715c-.25473.09714-.38243.38243-.28462.63648.07472.19699.2622.31722.46055.31722.05842,0,.11819-.01019.17593-.03261,2.53572-.96932,5.22021-1.51478,7.98009-1.62007.27239-.01087.48432-.23978.47413-.51217s-.24454-.48704-.51217-.47413c-2.86721.11004-5.65766.67723-8.29392,1.68528Z" />
    <path class="cls-2"
        d="M128.74149,45.19995c-1.99638.07676-3.94046.47209-5.77789,1.17446-.25473.09714-.38243.38243-.28462.63648.07472.19699.2622.31722.46055.31722.05842,0,.11819-.01019.17593-.03261,1.7369-.66365,3.57501-1.03725,5.46407-1.10925.27239-.01087.48432-.23978.47413-.51217-.01019-.27171-.21601-.47413-.51217-.47413Z" />
    <path class="cls-2"
        d="M120.27911,38.23129c.05774,0,.11616-.00951.17254-.03125,2.61316-.97679,5.37508-1.51817,8.21037-1.60852.27239-.00883.48636-.23639.47753-.50878-.00883-.27171-.20922-.46938-.50878-.47753-2.94261.09374-5.8105.65618-8.52419,1.67101-.25541.0951-.38515.37971-.28937.63444.07404.19835.2622.32062.46191.32062Z" />
</svg>