<?xml version="1.0" encoding="UTF-8"?>
<svg id="Layer_2" xmlns="http://www.w3.org/2000/svg" viewBox="0 0 72 72">
    <defs>
        <style>
            .cls-1{fill:#ffffff;}.cls-2{fill:none;stroke:#ffffff;stroke-linecap:round;stroke-linejoin:round;stroke-width:2px;}</style>
    </defs>
    <circle class="cls-2" cx="39.11991" cy="28.15226" r="17.52335" />
    <path class="cls-1"
        d="M40.73009,18.79508l1.94434,3.93966c.26193.53072.76823.89857,1.35392.98368l4.34768.63175c1.4749.21432,2.06383,2.02683.99658,3.06715l-3.14601,3.0666c-.42381.41311-.6172,1.00831-.51715,1.59163l.74267,4.33011c.25194,1.46895-1.28987,2.58914-2.60907,1.8956l-3.88868-2.0444c-.52385-.27541-1.14968-.27541-1.67354,0l-3.88868,2.0444c-1.31919.69354-2.86101-.42666-2.60907-1.8956l.74267-4.33011c.10005-.58332-.09334-1.17852-.51715-1.59163l-3.14601-3.0666c-1.06725-1.04031-.47833-2.85283.99658-3.06715l4.34768-.63175c.58569-.08511,1.09199-.45296,1.35392-.98368l1.94434-3.93966c.6596-1.33649,2.56539-1.33649,3.22499,0Z" />
    <path class="cls-2"
        d="M65.71939,28.15226c0,2.71868-3.16106,4.90458-3.95764,7.3577-.82552,2.54224.41841,6.16302-1.12166,8.27908-1.55545,2.13721-5.39378,2.06538-7.53104,3.62077-2.11604,1.53995-3.22532,5.22113-5.76749,6.04657-2.45298.79648-5.50314-1.50361-8.22165-1.50361-2.71868,0-5.76903,2.30003-8.22215,1.50345-2.54224-.82552-3.65152-4.50678-5.76759-6.04685-2.13721-1.55545-5.97554-1.48375-7.53093-3.62101-1.53995-2.11604-.29588-5.7367-1.12132-8.27886-.79648-2.45298-3.9575-4.63875-3.9575-7.35725,0-2.71868,3.16106-4.90458,3.95764-7.3577.82552-2.54224-.41841-6.16302,1.12166-8.27908,1.55545-2.13721,5.39378-2.06538,7.53104-3.62077,2.11604-1.53995,3.22532-5.22113,5.76749-6.04657,2.45298-.79648,5.50314,1.50361,8.22165,1.50361,2.71868,0,5.76903-2.30003,8.22215-1.50345,2.54224.82552,3.65152,4.50678,5.76759,6.04685,2.13721,1.55545,5.97554,1.48375,7.53093,3.62101,1.53995,2.11604.29588,5.7367,1.12132,8.27886.79648,2.45298,3.9575,4.63875,3.9575,7.35725Z" />
    <path class="cls-2"
        d="M51.56354,49.44236v16.75514c0,1.06542-1.10179,1.77401-2.07122,1.33207l-9.76514-4.45176c-.38575-.17586-.82878-.17586-1.21453,0l-9.76514,4.45176c-.96943.44195-2.07122-.26664-2.07122-1.33207v-16.75514" />
</svg>