<?xml version="1.0" encoding="UTF-8"?>
<svg id="Layer_2" xmlns="http://www.w3.org/2000/svg" viewBox="0 0 72 72">
    <defs>
        <style>
            .cls-1{fill:#ffffff;}.cls-2{fill:none;stroke:#ffffff;stroke-linecap:round;stroke-linejoin:round;stroke-width:2px;}</style>
    </defs>
    <path class="cls-2"
        d="M38.21201,48.64847l2.18312,4.78139c.21856.47869.67181.808,1.19462.86794l5.22199.59874c1.27813.14655,1.79189,1.72775.844,2.59758l-3.87275,3.5538c-.38772.35579-.56085.88862-.4563,1.40436l1.04425,5.15143c.25559,1.26085-1.08947,2.23809-2.20963,1.60539l-4.57661-2.58502c-.45819-.2588-1.01844-.2588-1.47663,0l-4.57661,2.58502c-1.12016.6327-2.46522-.34454-2.20963-1.60539l1.04425-5.15143c.10455-.51574-.06858-1.04857-.4563-1.40436l-3.87275-3.5538c-.94789-.86982-.43412-2.45103.844-2.59758l5.22199-.59874c.5228-.05994.97605-.38925,1.19462-.86794l2.18312-4.78139c.53434-1.17028,2.19692-1.17028,2.73125,0Z" />
    <path class="cls-2"
        d="M26.84968,54.89989l2.25636-2.06792c.94909-.86982.43486-2.45247-.84424-2.59832l-3.73977-.42642c-.52327-.05967-.97701-.38917-1.19567-.8683l-1.56607-3.43161c-.53423-1.17062-2.19725-1.17062-2.73148,0l-1.56613,3.43174c-.21862.47905-.67226.80854-1.19545.86827l-3.73527.42647c-1.27817.14593-1.79271,1.72685-.84528,2.59714l2.77201,2.54632c.38702.35551.55997.88751.45598,1.40264l-.7468,3.69963c-.25455,1.26104,1.09125,2.23718,2.2109,1.60361l3.277-1.85435c.45842-.25941,1.01926-.25959,1.47784-.00047l3.28315,1.85505c1.12051.63311,2.46606-.34492,2.20965-1.60613l-.61064-3.00354" />
    <path class="cls-2"
        d="M47.677,57.47371l-.61064,3.00354c-.25641,1.2612,1.08914,2.23924,2.20965,1.60613l3.28315-1.85505c.45859-.25911,1.01942-.25893,1.47784.00047l3.277,1.85435c1.11965.63357,2.46545-.34257,2.2109-1.60361l-.7468-3.69963c-.10398-.51513.06896-1.04713.45598-1.40264l2.77201-2.54632c.94743-.87029.43289-2.45121-.84528-2.59714l-3.73527-.42647c-.52318-.05973-.97682-.38922-1.19545-.86827l-1.56613-3.43174c-.53423-1.17062-2.19725-1.17062-2.73148,0l-1.56607,3.43161c-.21866.47913-.67239.80863-1.19567.8683l-3.73977.42642c-1.2791.14585-1.79333,1.7285-.84424,2.59832l2.25636,2.06792" />
    <path class="cls-2" d="M48.08338,57.10452c-.01087,0-.01087.01087-.02174.01087" />
    <path class="cls-2"
        d="M16.13292,49.82329c-3.85796-4.65129-6.17274-10.62842-6.17274-17.13806,0-14.84501,12.0412-26.88621,26.88621-26.88621s26.88621,12.0412,26.88621,26.88621c0,6.50964-2.31478,12.48676-6.17274,17.13806" />
    <path class="cls-1"
        d="M33.61744,42.05677h0c-.86494,0-1.6938-.34332-2.3051-.95515l-8.30982-8.31035c-1.27354-1.27301-1.27354-3.33719,0-4.61073,1.27354-1.27247,3.33666-1.27301,4.6102.00053l6.00472,6.00472,12.46261-12.46208c1.27354-1.27247,3.33666-1.27301,4.6102.00053,1.27354,1.27301,1.27354,3.33719,0,4.61073l-14.76771,14.76718c-.6113.6113-1.44016.95462-2.3051.95462Z" />
</svg>