<?xml version="1.0" encoding="UTF-8"?>
<svg id="Layer_2" xmlns="http://www.w3.org/2000/svg" viewBox="0 0 72 72">
    <defs>
        <style>
            .cls-1{fill:#ffffff;}.cls-2{fill:none;stroke:#ffffff;stroke-linecap:round;stroke-linejoin:round;stroke-width:2px;}</style>
    </defs>
    <path class="cls-1"
        d="M70.54731,17.82031c-.25765-9.33448-10.53814-16.60363-22.93694-16.26144-12.42717.343-22.29097,8.16801-22.03347,17.50257.33274,12.05548,16.26071,18.9899,29.76178,15.26321.2323-.06408.47292.03337.60643.23412,3.95393,5.94833,10.68065,6.26699,13.69107,6.07549.51866-.03296.70689-.68376.29972-1.00633-3.64722-2.88835-4.74625-7.91846-5.0443-9.8593-.02869-.18774.04606-.3663.18857-.49203,3.49537-3.08553,5.58665-7.12464,5.46716-11.4563ZM36.91869,21.81162c-1.74282,0-3.1556-1.41267-3.1556-3.15534s1.41277-3.15536,3.1556-3.15536c1.74252,0,3.15528,1.41269,3.15528,3.15536s-1.41275,3.15534-3.15528,3.15534ZM48.43606,21.81162c-1.7425,0-3.15525-1.41267-3.15525-3.15534s1.41275-3.15536,3.15525-3.15536,3.15528,1.41269,3.15528,3.15536-1.41275,3.15534-3.15528,3.15534ZM60.01885,21.81162c-1.74252,0-3.15528-1.41267-3.15528-3.15534s1.41275-3.15536,3.15528-3.15536c1.74282,0,3.1556,1.41269,3.1556,3.15536s-1.41277,3.15534-3.1556,3.15534Z" />
    <path class="cls-2"
        d="M21.17342,41.29737s.50984-5.05275,5.50177-5.05275,5.137,4.13743,5.137,4.85648.03011,3.31371-2.75066,5.27723c-2.2657,1.59984-2.02157,4.04269-2.02157,4.04269" />
    <line class="cls-2" x1="27.24217" y1="54.18011" x2="27.24217" y2="54.85621" />
    <path class="cls-2"
        d="M39.20385,30.62694H5.35371c-1.63803,0-2.96592,1.32789-2.96592,2.96592v23.63697c0,1.63803,1.32789,2.96592,2.96592,2.96592h6.60046l-.91627,9.74221,12.56661-9.74221h23.7942c1.63803,0,2.96592-1.32789,2.96592-2.96592v-17.47134" />
</svg>