<?xml version="1.0" encoding="UTF-8"?>
<svg id="Layer_2" xmlns="http://www.w3.org/2000/svg" viewBox="0 0 72 72">
    <defs>
        <style>
            .cls-1{fill:none;stroke:#ffffff;stroke-linecap:round;stroke-linejoin:round;stroke-width:2px;}</style>
    </defs>
    <circle class="cls-1" cx="36" cy="36" r="20.23822" />
    <circle class="cls-1" cx="65.37174" cy="36" r="3.44023" />
    <line class="cls-1" x1="56.23822" y1="36" x2="61.43355" y2="36" />
    <circle class="cls-1" cx="61.43355" cy="50.698" r="3.44023" />
    <line class="cls-1" x1="53.52852" y1="46.12289" x2="58.02506" y2="48.7253" />
    <circle class="cls-1" cx="50.69807" cy="61.43351" r="3.44023" />
    <line class="cls-1" x1="46.12295" y1="53.52849" x2="48.72537" y2="58.02502" />
    <circle class="cls-1" cx="36" cy="65.37174" r="3.44023" />
    <line class="cls-1" x1="36" y1="56.23822" x2="36" y2="61.43355" />
    <circle class="cls-1" cx="21.302" cy="61.43355" r="3.44023" />
    <line class="cls-1" x1="25.8771" y1="53.52852" x2="23.27469" y2="58.02506" />
    <circle class="cls-1" cx="10.56649" cy="50.69807" r="3.44023" />
    <line class="cls-1" x1="18.47151" y1="46.12295" x2="13.97498" y2="48.72537" />
    <circle class="cls-1" cx="6.62826" cy="36" r="3.44023" />
    <line class="cls-1" x1="15.76178" y1="36" x2="10.56645" y2="36" />
    <circle class="cls-1" cx="10.56645" cy="21.302" r="3.44023" />
    <line class="cls-1" x1="18.47148" y1="25.8771" x2="13.97494" y2="23.2747" />
    <circle class="cls-1" cx="21.30194" cy="10.56649" r="3.44023" />
    <line class="cls-1" x1="25.87706" y1="18.47151" x2="23.27464" y2="13.97498" />
    <circle class="cls-1" cx="36" cy="6.62826" r="3.44023" />
    <line class="cls-1" x1="36" y1="15.76178" x2="36" y2="10.56645" />
    <circle class="cls-1" cx="50.698" cy="10.56645" r="3.44023" />
    <line class="cls-1" x1="46.1229" y1="18.47148" x2="48.72531" y2="13.97494" />
    <circle class="cls-1" cx="61.43351" cy="21.30193" r="3.44023" />
    <line class="cls-1" x1="53.52849" y1="25.87705" x2="58.02502" y2="23.27463" />
    <polyline class="cls-1" points="38.54562 31.89228 50.91978 36.53526 36.83903 42.06729" />
    <path class="cls-1"
        d="M44.8725,39.11324v4.71121c0,1.41585-1.14778,2.56363-2.56363,2.56363h-12.62459c-1.41585,0-2.56363-1.14778-2.56363-2.56363v-4.71121" />
    <path class="cls-1"
        d="M31.68521,30.17618h0c2.2549,0,4.08559,1.83069,4.08559,4.08559v2.47867h0c-2.2549,0-4.08559-1.83069-4.08559-4.08559v-2.47867h0Z" />
    <path class="cls-1"
        d="M31.68521,32.48007l-10.60499,4.09642,10.51464,4.29104c1.95136.79635,4.09539-.60939,4.14312-2.71645l.22115-9.76356" />
    <line class="cls-1" x1="48.2982" y1="37.56522" x2="48.2982" y2="45.04067" />
    <circle class="cls-1" cx="48.19745" cy="45.18855" r=".92688" />
    <path class="cls-1"
        d="M40.04471,23.61192h0v2.47867c0,2.2549-1.83069,4.08559-4.08559,4.08559h0v-2.47867c0-2.2549,1.83069-4.08559,4.08559-4.08559Z"
        transform="translate(76.00383 53.7881) rotate(180)" />
</svg>